<?xml version="1.0" encoding="UTF-8"?>
<svg version="1.1" viewBox="0 0 2048 712" width="7354" height="2560" xmlns="http://www.w3.org/2000/svg">
<path transform="translate(84,89)" d="m0 0 42 6 297 45 7 1v547l-13 8-10-1-144-28-164-32-15-3v-160l12-5 16-5 8-1 41-1 16-4 44-17 4-5-1-7-3-2-9 1-16 6h-6l-1-4 4-4 28-11 3-3 1-7-1-4-9-1-23 9-5-1-1-5 5-3 33-13 4-6-1-8-4-3h-8l-23 9h-6l-1-1v-5l6-4 34-13 4-6v-6l-4-5-6-1-63 24h-6l-1-5 8-5 15-6 2-2v-3l-16-3h-9l-8 6-12 13-7 8-12 12-14 9-10 5h-2zm22 31v237l7-6 9-10 4-5 1-193 74 14 167 32h5l-1 454-225-44-20-4-1-119-12 1-8 3v133l287 56h1v-497l-72-14-69-13-143-25zm122 175-1 7-4 3 1 1h5l1 7 5-5h5l-3-4 2-7-7 1zm-24 7 1 7-6 2 2 2 4 1 1 6 4-4v-2l7 1-3-4 1-5 1-2-8 1zm47 3v7l-5 2 2 2h5l1 7 3-4v-2l7 1-3-4 2-7-8 2-2-4zm5 22v7l-5 3v1l6 1 1 6 4-4h7l-3-4 1-5 1-3-7 2zm-2 23v7l-5 2 3 2h3l1 7 4-5h7l-4-6 2-5-7 1zm56 2v31l-16-3-25-4v12l8 2 44 7h4v3l-7-1h-8v44l6 2 25 4h3v-92l-29-5z" fill="#FDDB01"/>
<path transform="translate(100,16)" d="m0 0h14l409 26 6 1-1 353-1 236-21 12h-1v-570h-17l-382-19-10 8-17 14-3 2-1 550-8-1-26-6v-564l15-11 20-14 18-13z" fill="#FDDB01"/>
<path transform="translate(1176,197)" d="m0 0h63v133l58-1 1-132h62l1 1v328l-1 1h-62v-136h-59v136h-63z" fill="#FDDB01"/>
<path transform="translate(694,193)" d="m0 0h19l17 3 12 4 12 6 10 8 9 9 9 14 6 14 5 21 2 19v10h-61l-3-21-5-12-7-8-8-4-4-1h-7l-10 3-7 5-5 8-3 10v20l4 10 5 6 12 6 15 4 19 4 19 7 11 6 13 10 10 11 9 16 5 15 2 11 1 11v14l-2 20-4 17-5 13-6 11-8 10-7 7-10 7-12 6-16 5-12 2h-33l-18-4-15-6-12-8-10-9-8-10-8-15-6-18-3-17-1-20h61l3 18 4 11 6 8 9 6 6 2h17l11-4 8-7 5-11 2-12-1-15-3-9-8-9-14-7-24-6-19-5-19-9-10-8-6-5-9-12-7-15-4-14-2-19v-10l2-21 4-17 6-15 9-14 7-8 13-10 15-7 14-4z" fill="#FDDB01"/>
<path transform="translate(1660,287)" d="m0 0h12l14 3 10 5 10 9 7 9 2 3 6-9 8-8 10-6 10-4 11-2h13l16 4 11 6 7 6 8 11 6 13 4 15 2 15v170h-53l-1-149-2-18-4-14-5-7-7-3h-10l-7 3-5 5-4 10-2 12-1 161h-52l-1-1-1-153-3-19-5-12-5-4-5-2h-10l-8 4-4 5-4 11-1 6-1 164-1 1h-52v-236h36l4 9 4 10 5-5 9-8 14-7z" fill="#FDDB01"/>
<path transform="translate(993,291)" d="m0 0h52l1 1 1 145 2 18 4 13 5 7 7 3h9l7-3 5-6 4-11 2-12 1-11 1-144h53v246l-3 18-5 13-6 11-11 12-14 9-14 5-9 2-10 1h-9l-15-2-16-5-12-7-10-9-8-10-6-13-4-15v-2h54l6 9 7 4 10 1 9-2 6-5 4-9 2-10v-22l-8 7-12 6-14 3h-11l-14-3-14-7-7-6-8-11-6-13-4-14-2-15z" fill="#FDDB01"/>
<path transform="translate(825,197)" d="m0 0h52l1 1v176l1-1 19-39 14-29 7-14h54l-1 6-24 56-22 51 1 6 15 34 12 28 19 44 4 9v2h-55l-12-24-11-23-16-33-4-9-1-1v89l-1 1h-52l-1-1v-328z" fill="#FDDB03"/>
<path transform="translate(1922,287)" d="m0 0h15l14 2 12 4 13 7 11 9 8 11 6 12 4 14 2 15v67h-101l2 29 3 12 5 8 4 3 8 2 10-1 8-5 5-10 3-17h53v9l-2 14-5 16-5 10-7 9-8 8-13 8-14 5-10 2h-27l-16-4-16-8-12-11-7-9-6-12-5-19-1-9v-99l3-18 6-16 7-11 8-9 10-7 12-6 15-4zm3 48-7 3-5 4-5 11-2 13v23h47l1-1v-16l-2-16-4-11-6-7-7-3z" fill="#FDDB01"/>
<path transform="translate(1460,287)" d="m0 0h15l14 2 15 5 13 8 10 9 9 14 5 12 3 13 1 8v101l-3 18-6 16-7 11-12 12-14 8-16 5-6 1h-27l-16-4-16-8-12-11-7-9-7-15-4-16-1-9v-98l3-19 6-16 7-11 7-8 11-8 12-6 15-4zm3 48-8 4-5 7-3 9-2 12-1 14v54l2 22 3 12 5 8 5 4 7 2 9-1 7-4 5-8 3-11 2-17v-63l-2-18-3-12-5-8-6-5-3-1z" fill="#FDDB01"/>
<path transform="translate(109,63)" d="m0 0 372 18 15 1v568l-24 14-5 3h-2l-1-563-363-22-13-1v-2l13-10z" fill="#FDDB01"/>
</svg>
